<svg width="80" height="80" viewBox="0 0 80 80" fill="none" xmlns="http://www.w3.org/2000/svg">
<rect width="80" height="80" rx="40" fill="#009429"/>
<path fill-rule="evenodd" clip-rule="evenodd" d="M38.0108 24.5878C36.7028 24.5878 35.6208 23.6119 35.4405 22.3569L29.3556 22.3606L29.3696 26.2497C30.4939 26.4122 31.3601 27.3207 31.5228 28.4453L32.5589 28.4559L32.5589 25.9246C32.5589 25.8185 32.6013 25.7337 32.679 25.656C32.7426 25.5924 32.8381 25.5393 32.937 25.5465L39.7431 25.5359C39.9552 25.5359 40.1285 25.7093 40.1285 25.9213C40.1179 26.9362 40.9557 27.774 41.9812 27.774C43.0067 27.774 43.8339 26.9468 43.8339 25.9214C43.8339 25.7093 44.0072 25.5359 44.2087 25.5465L46.6799 25.5425L46.694 22.3603L40.6057 22.3603C40.422 23.6119 39.3401 24.5878 38.0108 24.5878L38.0108 24.5878ZM32.5588 29.2053L31.5545 29.2053C31.4697 29.7642 31.2329 30.2766 30.8262 30.6833C30.4195 31.09 29.9177 31.3374 29.3694 31.4116L29.3662 53.6968L32.5624 53.6968L32.5624 35.0148C32.5624 34.8239 32.7464 34.64 32.9373 34.64C33.4325 34.64 33.9026 34.4456 34.2456 34.1026C34.5993 33.7489 34.7936 33.2789 34.7936 32.7836C34.7936 32.2884 34.5993 31.8183 34.2456 31.4647C33.9026 31.1216 33.4325 30.9273 32.9373 30.9273C32.8419 30.9379 32.7464 30.8849 32.6793 30.8178C32.6051 30.7436 32.5627 30.6587 32.5592 30.5492L32.5588 29.2053ZM39.3802 26.3068C39.5746 27.569 40.6565 28.5449 41.9646 28.5449L41.9643 28.5448C43.2829 28.5554 44.379 27.5655 44.5558 26.3069L50.6405 26.3104L50.63 30.196C50.0852 30.2737 49.5692 30.5282 49.1625 30.9349C48.763 31.3344 48.5194 31.84 48.4308 32.3952L47.2781 32.3951L47.2922 33.1589L48.4449 33.159C48.5191 33.7072 48.7631 34.2338 49.1591 34.6298C49.5693 35.04 50.0852 35.2945 50.6334 35.3687L50.641 57.6431L44.556 57.6394C44.3617 56.3772 43.2832 55.4047 41.9751 55.4047C40.667 55.4047 39.5638 56.3806 39.3907 57.6428L33.306 57.6393L33.3167 35.3757C33.8685 35.2979 34.3775 35.0434 34.7735 34.6474L34.7842 34.6367C35.1837 34.2372 35.4204 33.7248 35.5053 33.1659L36.6792 33.1659L36.6686 32.4055L35.5053 32.4162C35.417 31.8539 35.1871 31.3414 34.777 30.9312C34.3809 30.5351 33.8613 30.2769 33.3167 30.2064L33.3167 26.3033L39.3802 26.3068ZM38.1956 33.1484L39.7052 33.159L39.7158 32.3987L38.1956 32.3987L38.1956 33.1484ZM41.2257 33.1588H42.7458L42.7318 32.3949L41.215 32.3984L41.2257 33.1588ZM44.252 33.159H45.7722L45.7688 32.4058L44.2592 32.3952L44.252 33.159Z" fill="#F8FFFA"/>
</svg>
