<svg width="36" height="36" viewBox="0 0 36 36" fill="none" xmlns="http://www.w3.org/2000/svg">
<rect x="0.5" y="0.5" width="35" height="35" rx="17.5" fill="#F5F0EB"/>
<path fill-rule="evenodd" clip-rule="evenodd" d="M12.5954 21.3337L13.5787 20.3487C13.8937 20.0337 14.067 19.6153 14.067 19.1704V15.2728C14.067 14.142 14.5587 13.0612 15.417 12.3095C16.282 11.5512 17.3837 11.2178 18.5312 11.3687C20.4704 11.6262 21.9329 13.3795 21.9329 15.4478V19.1704C21.9329 19.6153 22.1062 20.0337 22.4204 20.3478L23.4045 21.3337H12.5954ZM19.6662 23.2845C19.6662 24.0337 18.9029 24.667 17.9995 24.667C17.0962 24.667 16.3329 24.0337 16.3329 23.2845V23.0003H19.6662V23.2845ZM25.1004 20.6737L23.5995 19.1703V15.4478C23.5995 12.547 21.5145 10.0828 18.7495 9.71702C17.1479 9.50368 15.5312 9.99285 14.3187 11.0562C13.0987 12.1245 12.4004 13.6612 12.4004 15.2728L12.3995 19.1703L10.8987 20.6737C10.5079 21.0653 10.392 21.6478 10.6037 22.1587C10.8162 22.6703 11.3104 23.0003 11.8637 23.0003H14.6662V23.2845C14.6662 24.9662 16.1612 26.3337 17.9995 26.3337C19.8379 26.3337 21.3329 24.9662 21.3329 23.2845V23.0003H24.1354C24.6887 23.0003 25.182 22.6703 25.3937 22.1595C25.6062 21.6478 25.4912 21.0645 25.1004 20.6737Z" fill="#2C2B2E"/>
<mask id="mask0_1284_27223" style="mask-type:alpha" maskUnits="userSpaceOnUse" x="10" y="9" width="16" height="18">
<path fill-rule="evenodd" clip-rule="evenodd" d="M12.5954 21.3337L13.5787 20.3487C13.8937 20.0337 14.067 19.6153 14.067 19.1704V15.2728C14.067 14.142 14.5587 13.0612 15.417 12.3095C16.282 11.5512 17.3837 11.2178 18.5312 11.3687C20.4704 11.6262 21.9329 13.3795 21.9329 15.4478V19.1704C21.9329 19.6153 22.1062 20.0337 22.4204 20.3478L23.4045 21.3337H12.5954ZM19.6662 23.2845C19.6662 24.0337 18.9029 24.667 17.9995 24.667C17.0962 24.667 16.3329 24.0337 16.3329 23.2845V23.0003H19.6662V23.2845ZM25.1004 20.6737L23.5995 19.1703V15.4478C23.5995 12.547 21.5145 10.0828 18.7495 9.71702C17.1479 9.50368 15.5312 9.99285 14.3187 11.0562C13.0987 12.1245 12.4004 13.6612 12.4004 15.2728L12.3995 19.1703L10.8987 20.6737C10.5079 21.0653 10.392 21.6478 10.6037 22.1587C10.8162 22.6703 11.3104 23.0003 11.8637 23.0003H14.6662V23.2845C14.6662 24.9662 16.1612 26.3337 17.9995 26.3337C19.8379 26.3337 21.3329 24.9662 21.3329 23.2845V23.0003H24.1354C24.6887 23.0003 25.182 22.6703 25.3937 22.1595C25.6062 21.6478 25.4912 21.0645 25.1004 20.6737Z" fill="white"/>
</mask>
<g mask="url(#mask0_1284_27223)">
<rect x="8" y="8" width="20" height="20" fill="#2C2B2E"/>
</g>
<rect x="0.5" y="0.5" width="35" height="35" rx="17.5" stroke="#FFD2A6"/>
</svg>
