<svg width="136" height="128" viewBox="0 0 136 128" fill="none" xmlns="http://www.w3.org/2000/svg">
<path d="M122.017 54.8997C122.017 69.0997 116.217 81.8996 106.917 91.0996C97.8172 100.2 85.2172 105.7 71.3172 105.7C57.5172 105.7 44.9172 100.1 35.7172 91.0996C26.4172 81.8996 20.6172 69.0997 20.6172 54.8997C20.6172 26.7997 43.3172 4.09961 71.3172 4.09961C99.3172 4.09961 122.017 26.8997 122.017 54.8997Z" fill="#EAEEF9"/>
<path d="M117.701 21.6003C119.966 21.6003 121.801 19.7602 121.801 17.5002C121.801 15.2302 119.966 13.4004 117.701 13.4004C115.437 13.4004 113.601 15.2302 113.601 17.5002C113.601 19.7602 115.437 21.6003 117.701 21.6003Z" fill="#EAEEF9"/>
<path d="M123.7 5.6001C125.247 5.6001 126.5 4.34005 126.5 2.80005C126.5 1.25005 125.247 0 123.7 0C122.154 0 120.9 1.25005 120.9 2.80005C120.9 4.34005 122.154 5.6001 123.7 5.6001Z" fill="#EAEEF9"/>
<path d="M22.3 21.5002C23.847 21.5002 25.1 20.2404 25.1 18.7004C25.1 17.1504 23.847 15.9004 22.3 15.9004C20.754 15.9004 19.5 17.1504 19.5 18.7004C19.5 20.2404 20.754 21.5002 22.3 21.5002Z" fill="#EAEEF9"/>
<path d="M5.20001 75.4995C8.07201 75.4995 10.4 73.1696 10.4 70.2996C10.4 67.4196 8.07201 65.0996 5.20001 65.0996C2.32801 65.0996 0 67.4196 0 70.2996C0 73.1696 2.32801 75.4995 5.20001 75.4995Z" fill="#EAEEF9"/>
<g filter="url(#filter0_d_1290_32600)">
<path d="M112.249 31.2903C110.881 29.3803 108.829 29.5504 108.102 31.8804C106.478 37.0704 101.39 38.9904 98.2703 39.4504C96.4743 26.1404 85.0173 15.9004 71.1653 15.9004C57.3573 15.9004 45.9423 26.1003 44.1043 39.3303C40.9403 38.7303 36.3233 36.7703 34.7843 31.8403C34.0573 29.5003 32.0053 29.3802 30.6373 31.2502C27.8583 35.0702 29.0133 39.9602 30.7233 43.9602C33.2453 50.0402 38.1193 54.3803 43.8473 57.3103C43.7193 64.5003 43.2063 70.3704 41.1973 77.9404C40.5133 80.5304 39.9143 82.6603 39.3593 84.0603C38.9743 85.0403 38.7173 86.0202 39.3163 87.0002C40.3423 88.6502 42.3513 89.1602 44.1893 89.4602C45.8993 89.7602 47.3533 89.8904 48.5503 89.9304C51.4573 90.0204 52.7403 89.5903 52.7403 89.5903C52.7403 89.5903 52.9533 89.9304 53.5093 90.4004C55.0913 91.8004 59.4943 94.5204 69.4133 94.1404C81.7683 93.6704 86.5133 92.4804 88.6933 90.6104C88.8643 90.4404 89.0353 90.3104 89.1643 90.1404C90.5323 90.1404 91.7713 90.1904 92.8833 90.1904C96.7733 90.2304 99.5523 90.3102 101.775 89.5002C103.528 88.8702 104.639 86.8304 103.528 84.6604C100.193 78.1104 98.4833 70.8803 98.4833 63.5203V57.5703C104.426 54.6403 109.556 50.2602 112.164 43.9602C113.874 39.9602 115.028 35.0703 112.249 31.2903Z" fill="url(#paint0_linear_1290_32600)"/>
</g>
<path d="M92.9249 90.1011C91.7709 90.1011 90.5309 90.061 89.2059 90.061C89.0779 90.231 88.907 90.401 88.736 90.531C87.496 85.041 86.4269 79.431 86.1699 72.541C87.9229 78.451 90.1459 85.4211 92.9249 90.1011Z" fill="#DFE0E2"/>
<path d="M53.5089 90.3594C52.9529 89.8894 52.7388 89.5493 52.7388 89.5493C52.7388 89.5493 51.4568 90.0194 48.5488 89.8894C50.9858 85.4194 53.1669 77.0494 52.9099 71.8594C53.2949 80.9994 53.4229 86.7394 53.5089 90.3594Z" fill="#DFE0E2"/>
<path d="M61.0334 46.8511C63.0634 46.8511 64.7094 45.2212 64.7094 43.2012C64.7094 41.1812 63.0634 39.541 61.0334 39.541C59.0024 39.541 57.3564 41.1812 57.3564 43.2012C57.3564 45.2212 59.0024 46.8511 61.0334 46.8511Z" fill="#9CA4B5"/>
<path d="M79.4164 48.7708C82.5094 48.7708 85.0164 46.2709 85.0164 43.2009C85.0164 40.1209 82.5094 37.6309 79.4164 37.6309C76.3234 37.6309 73.8154 40.1209 73.8154 43.2009C73.8154 46.2709 76.3234 48.7708 79.4164 48.7708Z" fill="#9CA4B5"/>
<path d="M80.8694 53.9102C80.8694 55.3202 75.9964 56.46 70.0104 56.46C63.9834 56.46 59.1094 55.3202 59.1094 53.9102H80.8694Z" fill="#9CA4B5"/>
<path d="M72.5333 66.1606C69.7543 66.1606 67.5312 63.9107 67.5312 61.1807V55.2305H77.5773V61.1807C77.5773 63.9107 75.3123 66.1606 72.5333 66.1606Z" fill="#9CA4B5"/>
<path opacity="0.2" d="M71.1647 105.41C87.2437 105.41 100.278 102.9 100.278 99.7996C100.278 96.6996 87.2437 94.1797 71.1647 94.1797C55.0857 94.1797 42.0508 96.6996 42.0508 99.7996C42.0508 102.9 55.0857 105.41 71.1647 105.41Z" fill="#A0A9BA"/>
<defs>
<filter id="filter0_d_1290_32600" x="6.96582" y="4.90039" width="128.955" height="122.276" filterUnits="userSpaceOnUse" color-interpolation-filters="sRGB">
<feFlood flood-opacity="0" result="BackgroundImageFix"/>
<feColorMatrix in="SourceAlpha" type="matrix" values="0 0 0 0 0 0 0 0 0 0 0 0 0 0 0 0 0 0 127 0" result="hardAlpha"/>
<feOffset dy="11"/>
<feGaussianBlur stdDeviation="11"/>
<feColorMatrix type="matrix" values="0 0 0 0 0.397708 0 0 0 0 0.47749 0 0 0 0 0.575 0 0 0 0.27 0"/>
<feBlend mode="normal" in2="BackgroundImageFix" result="effect1_dropShadow_1290_32600"/>
<feBlend mode="normal" in="SourceGraphic" in2="effect1_dropShadow_1290_32600" result="shape"/>
</filter>
<linearGradient id="paint0_linear_1290_32600" x1="71.4163" y1="14.0804" x2="71.4163" y2="95.0204" gradientUnits="userSpaceOnUse">
<stop stop-color="#FDFEFF"/>
<stop offset="0.9964" stop-color="#ECF0F5"/>
</linearGradient>
</defs>
</svg>
