<svg width="31" height="49" viewBox="0 0 31 49" fill="none" xmlns="http://www.w3.org/2000/svg">
<path fill-rule="evenodd" clip-rule="evenodd" d="M22.6863 16.2357V0H30.7294V28.919C30.7896 29.5239 30.8194 30.1263 30.8194 30.7212V33.6909H30.7294V33.7191H22.6863V33.6909H7.2594C7.2594 38.9045 10.2951 42.8642 15.5087 42.8642C19.2044 42.8642 22.5701 40.7524 24.22 37.2547L30.0935 39.5645C26.7278 46.0979 22.8341 48.9357 15.5087 48.9357C4.55362 48.9357 0 39.6964 0 31.7771C0 23.8578 4.55362 14.6185 15.5087 14.6185C18.305 14.6185 20.6899 15.2173 22.6863 16.2357ZM22.6863 25.0109C21.4294 22.4126 19.0005 20.69 15.5087 20.69C11.0871 20.69 8.18332 23.6598 7.39139 27.9494H22.6863V25.0109Z" fill="#F4F1FF"/>
</svg>
